<svg width="24" height="20" viewBox="0 0 24 20" fill="none" xmlns="http://www.w3.org/2000/svg">
<path fill-rule="evenodd" clip-rule="evenodd" d="M2.90163 5.80325C1.2991 5.80325 0 4.50415 0 2.90163C0 1.29911 1.2991 0 2.90163 0H21.0984C22.7009 0 24 1.29911 24 2.90163C24 4.50415 22.7009 5.80325 21.0984 5.80325H17.1307C16.879 5.80325 16.675 5.5992 16.675 5.34749C16.675 5.09579 16.879 4.89174 17.1307 4.89174H21.0984C22.1974 4.89174 23.0885 4.00074 23.0885 2.90163C23.0885 1.80252 22.1975 0.911513 21.0984 0.911513H2.90163C1.80252 0.911513 0.911513 1.80252 0.911513 2.90163C0.911513 4.00074 1.80252 4.89174 2.90163 4.89174H6.86922C7.12092 4.89174 7.32498 5.09579 7.32498 5.34749C7.32498 5.5992 7.12092 5.80325 6.86922 5.80325H2.90163ZM19.843 7.67987C19.7381 7.45102 19.4677 7.35051 19.2389 7.4554C19.01 7.56028 18.9095 7.83082 19.0144 8.05955C19.4215 8.94797 19.6472 9.92851 19.6472 10.9599C19.6472 14.9546 16.2442 18.2296 12 18.2296C7.75587 18.2296 4.35285 14.9546 4.35285 10.9599C4.35285 9.92851 4.57854 8.94797 4.98565 8.05955C5.09051 7.83082 4.99002 7.56028 4.7612 7.4554C4.53237 7.35051 4.26187 7.45102 4.157 7.67987C3.69678 8.68412 3.44134 9.79385 3.44134 10.9599C3.44134 15.4985 7.29393 19.1411 12 19.1411C16.7061 19.1411 20.5587 15.4985 20.5587 10.9599C20.5587 9.79385 20.3033 8.68412 19.843 7.67987ZM11.9999 7.41395C12.2516 7.41395 12.4556 7.61801 12.4556 7.86971V8.27491C12.8652 8.31878 13.2694 8.41431 13.6349 8.57048C14.2302 8.82461 14.7599 9.25837 14.9866 9.92365C15.0678 10.162 14.9404 10.4209 14.7022 10.502C14.4639 10.5832 14.205 10.4559 14.1238 10.2176C14.0056 9.87054 13.7163 9.59636 13.2768 9.40871C12.8358 9.22033 12.2815 9.13817 11.7293 9.16163C11.1755 9.18521 10.6655 9.3133 10.3107 9.50582C9.95189 9.70039 9.84092 9.90311 9.83788 10.0638C9.94702 10.2573 10.0958 10.3596 10.2996 10.4249C10.562 10.5088 10.8997 10.5259 11.3512 10.5313C11.4069 10.5319 11.4639 10.5324 11.5222 10.5329C12.3577 10.5397 13.4528 10.5487 14.4563 11.192L14.5025 11.2216L14.5403 11.2613C14.8394 11.5753 15.0356 11.9165 15.0688 12.2803C15.1033 12.6597 14.9539 12.9828 14.7229 13.2295C14.2914 13.6901 13.5329 13.9398 12.7953 14.037C12.6834 14.0517 12.5694 14.0633 12.454 14.0715C12.4551 14.084 12.4556 14.0967 12.4556 14.1096V14.5255C12.4556 14.7772 12.2516 14.9812 11.9999 14.9812C11.7482 14.9812 11.5441 14.7772 11.5441 14.5255V14.1096C11.5441 14.0952 11.5448 14.0811 11.5461 14.0673C11.1722 14.0362 10.8051 13.9679 10.4694 13.8577C9.77043 13.6284 9.09037 13.1712 8.9347 12.3716C8.88661 12.1245 9.04789 11.8852 9.29496 11.8371C9.54203 11.7891 9.78137 11.9504 9.82938 12.1975C9.89197 12.5184 10.1832 12.8045 10.7537 12.9917C11.3108 13.1745 12.0238 13.2192 12.6762 13.1333C13.3499 13.0446 13.8459 12.8325 14.0576 12.6064C14.1481 12.5097 14.1673 12.4334 14.161 12.3631C14.1536 12.2824 14.1049 12.1375 13.9172 11.9298C13.1552 11.4622 12.3251 11.4533 11.4714 11.4442L11.3402 11.4427C10.9064 11.4375 10.4339 11.425 10.0216 11.293C9.57731 11.1507 9.19826 10.8694 8.96703 10.3598L8.9263 10.27V10.1715V10.0706C8.9263 9.4256 9.37775 8.97483 9.87605 8.70454C10.3454 8.45004 10.9405 8.30201 11.5441 8.25923V7.86971C11.5441 7.61801 11.7482 7.41395 11.9999 7.41395Z" fill="white"/>
</svg>
