<svg width="26" height="20" viewBox="0 0 26 20" fill="none" xmlns="http://www.w3.org/2000/svg">
<path d="M15.8966 8.44833C14.9862 8.44833 14.2414 7.7035 14.2414 6.79315V3.48281C14.2414 2.57246 14.9862 1.82764 15.8966 1.82764C16.8069 1.82764 17.5517 2.57246 17.5517 3.48281V6.79315C17.5517 7.7035 16.8069 8.44833 15.8966 8.44833Z" stroke="white" stroke-width="2" stroke-miterlimit="10" stroke-linecap="round" stroke-linejoin="round"/>
<path d="M21.1897 2.24138C21.1897 2.65083 20.8577 2.98276 20.4483 2.98276C20.0388 2.98276 19.7069 2.65083 19.7069 2.24138C19.7069 1.83193 20.0388 1.5 20.4483 1.5C20.8577 1.5 21.1897 1.83193 21.1897 2.24138Z" stroke="white"/>
<path d="M24.5 8.03447C24.5 8.44392 24.168 8.77585 23.7586 8.77585C23.3491 8.77585 23.0172 8.44392 23.0172 8.03447C23.0172 7.62502 23.3491 7.29309 23.7586 7.29309C24.168 7.29309 24.5 7.62502 24.5 8.03447Z" stroke="white"/>
<path d="M24.1724 1.82764L20.0345 8.44833" stroke="white" stroke-width="2" stroke-miterlimit="10" stroke-linecap="round" stroke-linejoin="round"/>
<path d="M11.7586 1.82764H2.65517C1.74483 1.82764 1 2.57246 1 3.48281V16.7242C1 17.6345 1.74483 18.3794 2.65517 18.3794H22.5172C23.4276 18.3794 24.1724 17.6345 24.1724 16.7242V10.9311" stroke="white" stroke-width="2" stroke-miterlimit="10" stroke-linecap="round" stroke-linejoin="round"/>
<path d="M4.31036 13.4138H5.96554" stroke="white" stroke-width="2" stroke-miterlimit="10" stroke-linecap="round" stroke-linejoin="round"/>
<path d="M9.27588 13.4138H10.9311" stroke="white" stroke-width="2" stroke-miterlimit="10" stroke-linecap="round" stroke-linejoin="round"/>
<path d="M14.2414 13.4138H15.8966" stroke="white" stroke-width="2" stroke-miterlimit="10" stroke-linecap="round" stroke-linejoin="round"/>
<path d="M19.2069 13.4138H20.8621" stroke="white" stroke-width="2" stroke-miterlimit="10" stroke-linecap="round" stroke-linejoin="round"/>
<path d="M1 5.13794H11.7586" stroke="white" stroke-width="2" stroke-miterlimit="10" stroke-linecap="round" stroke-linejoin="round"/>
</svg>
