<svg width="24" height="32" viewBox="0 0 24 32" fill="none" xmlns="http://www.w3.org/2000/svg">
<path d="M22.8312 5.83625L18.1669 1.17125C17.4125 0.421375 16.3937 0 15.3375 0H4C1.79063 0 0 1.79063 0 4L0.00040625 28C0.00040625 30.2088 1.79103 32 4.00041 32H20C22.2 32 24 30.2 24 28V8.6625C24 7.60625 23.5812 6.5875 22.8312 5.83625ZM21 28C21 28.5523 20.5523 29 20 29H4.00125C3.44887 29 3.00125 28.5523 3.00125 28L3 4.00812C3 3.45587 3.44775 3.00813 4 3.00813H14V8C14 9.10438 14.8956 10 16 10H20.9438V28H21ZM12.625 17.8813C12.6798 17.7133 12.7338 17.5439 12.7864 17.3722C12.876 17.0121 13.2544 15.4009 13.2544 14.0928C13.2563 12.9375 12.3188 12 11.1625 12C10.0063 12 9.06875 12.9375 9.06875 14.0938C9.06875 14.1123 9.07901 15.8944 9.93437 17.9875C9.49469 19.1975 8.96125 20.4125 8.34625 21.6081C7.00312 22.24 5.89375 22.9975 5.04625 23.8625C4.65662 24.2649 4.46081 24.7837 4.46081 25.4075C4.46081 26.5606 5.39894 27.4988 6.55206 27.4988C7.22706 27.4988 7.86331 27.1721 8.25331 26.625C8.71094 25.9825 9.40206 24.9437 10.1577 23.5656C11.1452 23.1686 12.2752 22.8331 13.5252 22.5656C14.3721 23.1642 15.3314 23.6463 16.3821 24C16.665 24.0969 16.9697 24.1467 17.2839 24.1467C18.5502 24.1467 19.5421 23.1349 19.5421 21.843C19.5421 20.5724 18.5083 19.5386 17.2377 19.5386H17.0061C16.8357 19.5464 15.7242 19.6099 14.1705 19.8741C13.5562 19.3062 13.0375 18.6438 12.625 17.8813ZM6.8875 25.65C6.68294 25.943 6.13562 25.8236 6.13562 25.318C6.13562 25.2084 6.17493 25.1036 6.24369 25.0333C6.80744 24.4571 7.48994 23.9677 8.23431 23.5508C7.64375 24.5687 7.14375 25.2937 6.8875 25.65ZM11.1625 13.675C11.3933 13.675 11.5814 13.863 11.5814 14.0939C11.5814 15.0446 11.3246 16.2714 11.2223 16.7252C10.7563 15.3125 10.7437 14.2 10.7437 14.0938C10.7437 13.8625 10.9313 13.675 11.1625 13.675ZM10.1438 21.7687C10.5569 20.9262 10.97 19.99 11.355 18.975C11.7543 19.6575 12.265 20.3413 12.915 20.9731C12.0375 21.175 11.0875 21.4312 10.1438 21.7687ZM17.025 21.2188H17.2345C17.5807 21.2188 17.8626 21.5 17.8626 21.8931C17.8626 22.2137 17.6016 22.4756 17.2801 22.4756C17.1533 22.4756 17.0264 22.4559 16.9144 22.4168C16.1438 22.1582 15.47 21.8343 14.8806 21.4674C16.1437 21.2688 17.0062 21.2188 17.025 21.2188Z" fill="white"/>
</svg>
