<svg width="40" height="29" viewBox="0 0 40 29" fill="none" xmlns="http://www.w3.org/2000/svg">
<path d="M39.1642 4.40054C38.7041 2.66845 37.3487 1.30418 35.6276 0.841134C32.5083 3.31714e-07 20 0 20 0C20 0 7.49168 3.31714e-07 4.37219 0.841221C2.65123 1.30427 1.29583 2.66845 0.83583 4.40063C-8.29286e-08 7.54021 0 14.0909 0 14.0909C0 14.0909 -8.29286e-08 20.6417 0.83583 23.7812C1.29583 25.5134 2.65123 26.8208 4.37219 27.2839C7.49168 28.1251 20 28.1251 20 28.1251C20 28.1251 32.5083 28.1251 35.6276 27.2839C37.3487 26.8207 38.7041 25.5133 39.1642 23.7811C40 20.6417 40 14.0908 40 14.0908C40 14.0908 40 7.54021 39.1642 4.40054Z" fill="#FF0000"/>
<path d="M15.909 20.0396V8.14453L26.3635 14.0922L15.909 20.0396Z" fill="white"/>
</svg>
